<?xml version="1.0" encoding="utf-8"?>
<svg width="151px" height="151px" viewBox="0 0 151 151" version="1.1" xmlns:xlink="http://www.w3.org/1999/xlink" xmlns="http://www.w3.org/2000/svg">
  <desc>Created with Lunacy</desc>
  <defs>
    <linearGradient x1="0" y1="0" x2="1" y2="1" id="gradient_1">
      <stop offset="0" stop-color="#00AEC7" />
      <stop offset="1" stop-color="#00B398" />
    </linearGradient>
  </defs>
  <g id="app-icon" transform="translate(0.5 0.5)">
    <path d="M11.999 0L138.001 0Q138.296 0 138.59 0.0144533Q138.884 0.0289066 139.177 0.0577785Q139.47 0.0866503 139.762 0.129871Q140.053 0.173092 140.342 0.230557Q140.631 0.288023 140.917 0.359595Q141.202 0.431167 141.484 0.516673Q141.766 0.602179 142.043 0.701413Q142.321 0.800647 142.593 0.913369Q142.865 1.02609 143.131 1.15203Q143.398 1.27797 143.657 1.41683Q143.917 1.55568 144.17 1.70711Q144.422 1.85855 144.667 2.0222Q144.912 2.18584 145.149 2.36131Q145.385 2.53678 145.613 2.72365Q145.841 2.91051 146.059 3.10833Q146.277 3.30614 146.486 3.51443Q146.694 3.72271 146.892 3.94096Q147.089 4.15922 147.276 4.38691Q147.463 4.61461 147.639 4.8512Q147.814 5.0878 147.978 5.33271Q148.141 5.57763 148.293 5.83028Q148.444 6.08293 148.583 6.34271Q148.722 6.60249 148.848 6.86877Q148.974 7.13504 149.087 7.40718Q149.199 7.67932 149.299 7.95666Q149.398 8.234 149.483 8.51587Q149.569 8.79775 149.64 9.08348Q149.712 9.36921 149.769 9.65811Q149.827 9.94701 149.87 10.2384Q149.913 10.5298 149.942 10.8229Q149.971 11.116 149.986 11.4102Q150 11.7044 150 11.999L150 138.001Q150 138.296 149.986 138.59Q149.971 138.884 149.942 139.177Q149.913 139.47 149.87 139.762Q149.827 140.053 149.769 140.342Q149.712 140.631 149.64 140.917Q149.569 141.202 149.483 141.484Q149.398 141.766 149.299 142.043Q149.199 142.321 149.087 142.593Q148.974 142.865 148.848 143.131Q148.722 143.398 148.583 143.657Q148.444 143.917 148.293 144.17Q148.141 144.422 147.978 144.667Q147.814 144.912 147.639 145.149Q147.463 145.385 147.276 145.613Q147.089 145.841 146.892 146.059Q146.694 146.277 146.486 146.486Q146.277 146.694 146.059 146.892Q145.841 147.089 145.613 147.276Q145.385 147.463 145.149 147.639Q144.912 147.814 144.667 147.978Q144.422 148.141 144.17 148.293Q143.917 148.444 143.657 148.583Q143.398 148.722 143.131 148.848Q142.865 148.974 142.593 149.087Q142.321 149.199 142.043 149.299Q141.766 149.398 141.484 149.483Q141.202 149.569 140.917 149.64Q140.631 149.712 140.342 149.769Q140.053 149.827 139.762 149.87Q139.47 149.913 139.177 149.942Q138.884 149.971 138.59 149.986Q138.296 150 138.001 150L11.999 150Q11.7044 150 11.4102 149.986Q11.116 149.971 10.8229 149.942Q10.5298 149.913 10.2384 149.87Q9.94701 149.827 9.65811 149.769Q9.36921 149.712 9.08348 149.64Q8.79775 149.569 8.51587 149.483Q8.234 149.398 7.95666 149.299Q7.67932 149.199 7.40718 149.087Q7.13504 148.974 6.86877 148.848Q6.60249 148.722 6.34271 148.583Q6.08293 148.444 5.83028 148.293Q5.57763 148.141 5.33271 147.978Q5.0878 147.814 4.8512 147.639Q4.61461 147.463 4.38691 147.276Q4.15922 147.089 3.94096 146.892Q3.72271 146.694 3.51443 146.486Q3.30614 146.277 3.10833 146.059Q2.91051 145.841 2.72365 145.613Q2.53678 145.385 2.36131 145.149Q2.18584 144.912 2.0222 144.667Q1.85855 144.422 1.70711 144.17Q1.55568 143.917 1.41683 143.657Q1.27797 143.398 1.15203 143.131Q1.02609 142.865 0.913369 142.593Q0.800647 142.321 0.701413 142.043Q0.602179 141.766 0.516673 141.484Q0.431167 141.202 0.359595 140.917Q0.288023 140.631 0.230557 140.342Q0.173092 140.053 0.129871 139.762Q0.0866503 139.47 0.0577785 139.177Q0.0289066 138.884 0.0144533 138.59Q0 138.296 0 138.001L0 11.999Q0 11.7044 0.0144533 11.4102Q0.0289066 11.116 0.0577785 10.8229Q0.0866503 10.5298 0.129871 10.2384Q0.173092 9.94701 0.230557 9.65811Q0.288023 9.36921 0.359595 9.08348Q0.431167 8.79775 0.516673 8.51587Q0.602179 8.234 0.701413 7.95666Q0.800647 7.67932 0.913369 7.40718Q1.02609 7.13504 1.15203 6.86877Q1.27797 6.60249 1.41683 6.34271Q1.55568 6.08293 1.70711 5.83028Q1.85855 5.57763 2.0222 5.33271Q2.18584 5.0878 2.36131 4.8512Q2.53678 4.61461 2.72365 4.38691Q2.91051 4.15922 3.10833 3.94096Q3.30614 3.72271 3.51443 3.51443Q3.72271 3.30614 3.94096 3.10833Q4.15922 2.91051 4.38691 2.72365Q4.61461 2.53678 4.8512 2.36131Q5.0878 2.18584 5.33271 2.0222Q5.57763 1.85855 5.83028 1.70711Q6.08293 1.55568 6.34271 1.41683Q6.60249 1.27797 6.86877 1.15203Q7.13504 1.02609 7.40718 0.913369Q7.67932 0.800647 7.95666 0.701413Q8.234 0.602179 8.51587 0.516673Q8.79775 0.431167 9.08348 0.359595Q9.36921 0.288023 9.65811 0.230557Q9.94701 0.173092 10.2384 0.129871Q10.5298 0.0866503 10.8229 0.0577785Q11.116 0.0289066 11.4102 0.0144533Q11.7044 0 11.999 0Z" id="Background" fill="url(#gradient_1)" stroke="none" />
    <path d="M64.7252 49.9166L64.7252 6.57167C60.8034 4.50012 56.3333 3.32859 51.5932 3.32859C35.9969 3.32859 23.3002 16.0253 23.3002 31.6216C23.3002 38.7924 27.5974 44.5199 31.7387 50.0589C35.5028 55.0908 39.3775 60.2657 39.9756 66.4678L49.9289 66.4678L49.9289 61.5789C49.9289 60.6623 50.67 59.9146 51.5932 59.9146C52.5164 59.9146 53.2575 60.6623 53.2575 61.5789L53.2575 66.4678L63.3083 66.4678C63.7128 62.4054 65.5036 58.7837 67.7379 55.3597C65.6537 55.1652 63.4402 55.0507 61.1173 55.0507L59.9147 55.0507L59.9147 11.4105L62.3199 11.4105L62.3199 52.5739C76.9911 52.8396 86.9035 57.2467 87.5753 57.5576C88.247 57.2467 98.1594 52.8396 112.831 52.5739L112.831 11.4105L115.236 11.4105L115.236 55.0507L114.033 55.0507C98.648 55.0507 88.0638 60.0745 88.0638 60.0745L87.5753 60.3052L87.0867 60.0745C87.0867 60.0745 81.0439 57.2063 71.4531 55.8043C68.708 59.7394 66.5718 63.6753 66.5718 68.1321L66.5718 78.2219C66.5718 84.0794 62.2226 88.9293 56.5861 89.7419L56.5861 91.5362C56.5861 93.3696 55.0908 94.8648 53.2575 94.8648L49.9289 94.8648C48.0956 94.8648 46.6003 93.3696 46.6003 91.5362L46.6003 89.7419C40.9638 88.9293 36.6145 84.0794 36.6145 78.2219L36.6145 66.6368C36.0489 61.4359 32.6748 56.8591 29.0732 52.0612C24.6004 46.0802 19.9716 39.8911 19.9716 31.6216C19.9716 14.179 34.1506 0 51.5932 0C57.9199 0 63.8162 1.8693 68.7638 5.08071C79.1813 5.72255 86.8676 9.67375 87.5753 10.0467C88.3457 9.64063 97.3889 4.99283 109.223 4.99283L110.425 4.99283L110.425 49.9166L109.223 49.9166C97.5158 49.9166 88.1155 54.9153 88.1155 54.9153L87.5753 55.2011L87.035 54.9153C87.035 54.9153 77.6347 49.9166 65.9278 49.9166L64.7252 49.9166ZM86.3726 12.2529C84.7518 11.4707 77.0475 7.97608 67.1304 7.67525L67.1304 47.4648C76.6153 47.7356 83.8123 50.6686 86.3726 51.8469L86.3726 12.2529ZM108.02 7.67525L108.02 47.4648C98.5351 47.7356 91.3381 50.6686 88.7778 51.8469L88.7778 12.2529C90.3985 11.4707 98.1029 7.97608 108.02 7.67525ZM38.7989 12.1441C42.576 9.66071 46.9188 8.35397 51.3656 8.32147C52.8479 8.30847 54.3431 8.43199 55.8319 8.71154C56.7356 8.87407 57.3337 9.73872 57.1646 10.6424C57.0021 11.5525 56.1375 12.1507 55.2338 11.9816C50.1239 11.0455 44.9425 12.0856 40.6322 14.9201C40.3527 15.1087 40.0341 15.1932 39.7155 15.1932C39.1759 15.1932 38.6429 14.9331 38.3308 14.4456C37.8237 13.6784 38.0317 12.6447 38.7989 12.1441ZM6.83918 13.5418C7.09923 12.9047 7.71684 12.5147 8.36045 12.5017C8.58149 12.4952 8.79603 12.5342 9.01057 12.6187L15.1802 15.1151C16.0318 15.4597 16.4479 16.4284 16.1033 17.2865C15.8433 17.9301 15.2192 18.3267 14.5625 18.3267C14.3545 18.3267 14.14 18.2877 13.9384 18.2032L7.76235 15.7067C6.91069 15.3687 6.50112 14.3935 6.83918 13.5418ZM0 31.6216C0 30.7049 0.741133 29.9573 1.6643 29.9573L11.6501 29.9573C12.5732 29.9573 13.3144 30.7049 13.3144 31.6216C13.3144 32.5382 12.5732 33.2858 11.6501 33.2858L1.6643 33.2858C0.741133 33.2858 0 32.5382 0 31.6216ZM43.7593 37.1021C44.0843 36.777 44.5134 36.6145 44.936 36.6145C45.3585 36.6145 45.7876 36.777 46.1127 37.1021L49.4413 40.4307C50.0914 41.0808 50.0914 42.134 49.4413 42.7841C49.1162 43.1092 48.6936 43.2717 48.2646 43.2717C47.8355 43.2717 47.4129 43.1092 47.0879 42.7841L43.7593 39.4555C43.1091 38.8054 43.1091 37.7522 43.7593 37.1021ZM53.732 40.4371C54.0635 40.1121 54.4861 39.9496 54.9152 39.9496C55.3378 39.9496 55.7603 40.1121 56.0919 40.4371C56.742 41.0938 56.742 42.1404 56.0919 42.7971L53.2574 45.6251L53.2574 54.9217C53.2574 55.8384 52.5163 56.586 51.5931 56.586C50.6699 56.586 49.9288 55.8384 49.9288 54.9217L49.9288 44.9359C49.9288 44.4939 50.1043 44.0713 50.4164 43.7592L53.732 40.4371ZM13.9385 45.04C14.1465 44.9555 14.3675 44.9165 14.5821 44.923C15.2322 44.936 15.8433 45.3196 16.1033 45.9567C16.4479 46.8148 16.0318 47.7835 15.1802 48.1281L9.01058 50.6245C8.80255 50.7025 8.59451 50.7415 8.38647 50.7415C7.72985 50.7415 7.10574 50.3514 6.8392 49.7013C6.50114 48.8497 6.91071 47.8745 7.76236 47.5364L13.9385 45.04ZM63.2432 71.7598L63.2432 69.9004L39.9431 69.9004L39.9431 74.6723L63.2432 71.7598ZM63.2432 78.2218L63.2432 75.1143L39.9431 78.0268L39.9431 78.2218C39.9431 82.8116 43.6748 86.5433 48.2646 86.5433L54.9218 86.5433C58.1918 86.5433 61.0003 84.632 62.3591 81.882L46.7368 83.8323C46.6653 83.8453 46.5938 83.8453 46.5288 83.8453C45.7031 83.8453 44.988 83.2342 44.884 82.3891C44.767 81.4789 45.4106 80.6468 46.3207 80.5362L63.2237 78.4234C63.2237 78.3519 63.2432 78.2868 63.2432 78.2218ZM53.2574 91.5362L53.2574 89.872L49.9288 89.872L49.9288 91.5362L53.2574 91.5362Z" transform="translate(17 27)" id="Light-Bulb" fill="#FFFFFF" fill-rule="evenodd" stroke="#FFFFFF" stroke-width="1" />
  </g>
</svg>