<?xml version="1.0" encoding="utf-8"?>
<svg width="153px" height="179px" viewBox="0 0 153 179" version="1.1" xmlns:xlink="http://www.w3.org/1999/xlink" xmlns="http://www.w3.org/2000/svg">
  <desc>Created with Lunacy</desc>
  <g id="cal-card-small" transform="translate(1 1)">
    <path d="M2.999 0L148.001 0Q148.148 0 148.295 0.014441Q148.442 0.028882 148.586 0.0576249Q148.731 0.0863679 148.872 0.129136Q149.013 0.171904 149.149 0.228285Q149.285 0.284667 149.415 0.354118Q149.545 0.42357 149.667 0.505423Q149.79 0.587276 149.904 0.680742Q150.017 0.774208 150.122 0.878387Q150.226 0.982566 150.319 1.09645Q150.413 1.21034 150.495 1.33284Q150.576 1.45535 150.646 1.58528Q150.715 1.71522 150.772 1.85133Q150.828 1.98745 150.871 2.12844Q150.914 2.26942 150.942 2.41392Q150.971 2.55842 150.986 2.70505Q151 2.85167 151 2.999L151 174.001Q151 174.148 150.986 174.295Q150.971 174.442 150.942 174.586Q150.914 174.731 150.871 174.872Q150.828 175.013 150.772 175.149Q150.715 175.285 150.646 175.415Q150.576 175.545 150.495 175.667Q150.413 175.79 150.319 175.904Q150.226 176.017 150.122 176.122Q150.017 176.226 149.904 176.319Q149.79 176.413 149.667 176.495Q149.545 176.576 149.415 176.646Q149.285 176.715 149.149 176.772Q149.013 176.828 148.872 176.871Q148.731 176.914 148.586 176.942Q148.442 176.971 148.295 176.986Q148.148 177 148.001 177L2.999 177Q2.85167 177 2.70505 176.986Q2.55842 176.971 2.41392 176.942Q2.26942 176.914 2.12844 176.871Q1.98745 176.828 1.85133 176.772Q1.71522 176.715 1.58528 176.646Q1.45535 176.576 1.33284 176.495Q1.21034 176.413 1.09645 176.319Q0.982566 176.226 0.878387 176.122Q0.774208 176.017 0.680742 175.904Q0.587276 175.79 0.505423 175.667Q0.42357 175.545 0.354118 175.415Q0.284667 175.285 0.228285 175.149Q0.171904 175.013 0.129136 174.872Q0.0863679 174.731 0.0576249 174.586Q0.028882 174.442 0.014441 174.295Q0 174.148 0 174.001L0 2.999Q0 2.85167 0.014441 2.70505Q0.028882 2.55842 0.0576249 2.41392Q0.0863679 2.26942 0.129136 2.12844Q0.171904 1.98745 0.228285 1.85133Q0.284667 1.71522 0.354118 1.58528Q0.42357 1.45535 0.505423 1.33284Q0.587276 1.21034 0.680742 1.09645Q0.774208 0.982566 0.878387 0.878387Q0.982566 0.774208 1.09645 0.680742Q1.21034 0.587276 1.33284 0.505423Q1.45535 0.42357 1.58528 0.354118Q1.71522 0.284667 1.85133 0.228285Q1.98745 0.171904 2.12844 0.129136Q2.26942 0.0863679 2.41392 0.0576249Q2.55842 0.028882 2.70505 0.014441Q2.85167 0 2.999 0Z" id="Rectangle" fill="#FFFFFF" stroke="#F4F4F4" stroke-width="2" />
    <path d="M0 31.5C0 14.103 14.103 0 31.5 0C48.897 0 63 14.103 63 31.5C63 48.897 48.897 63 31.5 63C14.103 63 0 48.897 0 31.5Z" transform="translate(19 19.99997)" id="Ellipse" fill="#00B398" fill-opacity="0.2" stroke="none" />
    <path d="M25 25.8929C25 27.3717 23.8002 28.5714 22.3214 28.5714L2.67857 28.5714C1.19978 28.5714 0 27.3717 0 25.8929L0 6.25C0 4.77121 1.19978 3.57143 2.67857 3.57143L5.35714 3.57143L5.35714 0.669643C5.35714 0.301339 5.65848 0 6.02679 0L8.25893 0C8.62723 0 8.92857 0.301339 8.92857 0.669643L8.92857 3.57143L16.0714 3.57143L16.0714 0.669643C16.0714 0.301339 16.3728 0 16.7411 0L18.9732 0C19.3415 0 19.6429 0.301339 19.6429 0.669643L19.6429 3.57143L22.3214 3.57143C23.8002 3.57143 25 4.77121 25 6.25L25 25.8929ZM22.3214 8.92859L22.3214 25.5581C22.3214 25.7422 22.1708 25.8929 21.9866 25.8929L3.01341 25.8929C2.82926 25.8929 2.67859 25.7422 2.67859 25.5581L2.67859 8.92859L22.3214 8.92859ZM8.25893 16.0714L6.02679 16.0714C5.65849 16.0714 5.35715 15.7701 5.35715 15.4018L5.35715 13.1696C5.35715 12.8013 5.65849 12.5 6.02679 12.5L8.25893 12.5C8.62724 12.5 8.92858 12.8013 8.92858 13.1696L8.92858 15.4018C8.92858 15.7701 8.62724 16.0714 8.25893 16.0714ZM14.2857 13.1696L14.2857 15.4018C14.2857 15.7701 13.9844 16.0714 13.6161 16.0714L11.3839 16.0714C11.0156 16.0714 10.7143 15.7701 10.7143 15.4018L10.7143 13.1696C10.7143 12.8013 11.0156 12.5 11.3839 12.5L13.6161 12.5C13.9844 12.5 14.2857 12.8013 14.2857 13.1696ZM19.6428 15.4018L19.6428 13.1696C19.6428 12.8013 19.3415 12.5 18.9732 12.5L16.7411 12.5C16.3727 12.5 16.0714 12.8013 16.0714 13.1696L16.0714 15.4018C16.0714 15.7701 16.3727 16.0714 16.7411 16.0714L18.9732 16.0714C19.3415 16.0714 19.6428 15.7701 19.6428 15.4018ZM8.92858 20.7589L8.92858 18.5268C8.92858 18.1585 8.62724 17.8571 8.25893 17.8571L6.02679 17.8571C5.65849 17.8571 5.35715 18.1585 5.35715 18.5268L5.35715 20.7589C5.35715 21.1272 5.65849 21.4286 6.02679 21.4286L8.25893 21.4286C8.62724 21.4286 8.92858 21.1272 8.92858 20.7589ZM14.2857 18.5268L14.2857 20.7589C14.2857 21.1272 13.9844 21.4286 13.6161 21.4286L11.3839 21.4286C11.0156 21.4286 10.7143 21.1272 10.7143 20.7589L10.7143 18.5268C10.7143 18.1585 11.0156 17.8571 11.3839 17.8571L13.6161 17.8571C13.9844 17.8571 14.2857 18.1585 14.2857 18.5268ZM19.6428 18.5268L19.6428 20.7589C19.6428 21.1272 19.3415 21.4286 18.9732 21.4286L16.7411 21.4286C16.3727 21.4286 16.0714 21.1272 16.0714 20.7589L16.0714 18.5268C16.0714 18.1585 16.3727 17.8571 16.7411 17.8571L18.9732 17.8571C19.3415 17.8571 19.6428 18.1585 19.6428 18.5268Z" transform="translate(38 36)" id="Shape-2" fill="#00B398" fill-rule="evenodd" stroke="none" />
  </g>
</svg>