<?xml version="1.0" encoding="utf-8"?>
<svg width="20px" height="23px" viewBox="0 0 20 23" version="1.1" xmlns:xlink="http://www.w3.org/1999/xlink" xmlns="http://www.w3.org/2000/svg">
  <desc>Created with Lunacy</desc>
  <path d="M20 5L20 6.60714C20 6.90179 19.7589 7.14286 19.4643 7.14286L0.535714 7.14286C0.241071 7.14286 0 6.90179 0 6.60714L0 5C0 3.81696 0.959821 2.85714 2.14286 2.85714L4.28571 2.85714L4.28571 0.535714C4.28571 0.241071 4.52679 0 4.82143 0L6.60714 0C6.90179 0 7.14286 0.241071 7.14286 0.535714L7.14286 2.85714L12.8571 2.85714L12.8571 0.535714C12.8571 0.241071 13.0982 0 13.3929 0L15.1786 0C15.4732 0 15.7143 0.241071 15.7143 0.535714L15.7143 2.85714L17.8571 2.85714C19.0402 2.85714 20 3.81696 20 5ZM19.4643 8.57141L0.535714 8.57141C0.241071 8.57141 0 8.81248 0 9.10713L0 20.7143C0 21.8973 0.959821 22.8571 2.14286 22.8571L17.8571 22.8571C19.0402 22.8571 20 21.8973 20 20.7143L20 9.10713C20 8.81248 19.7589 8.57141 19.4643 8.57141Z" id="Shape" fill="#307FE2" fill-opacity="0.5" fill-rule="evenodd" stroke="none" />
</svg>