<?xml version="1.0" encoding="utf-8"?>
<svg width="22px" height="25px" viewBox="0 0 22 25" version="1.1" xmlns:xlink="http://www.w3.org/1999/xlink" xmlns="http://www.w3.org/2000/svg">
  <desc>Created with Lunacy</desc>
  <path d="M21.875 22.6563C21.875 23.9502 20.8252 25 19.5313 25L2.34375 25C1.0498 25 0 23.9502 0 22.6563L0 5.46875C0 4.1748 1.0498 3.125 2.34375 3.125L4.6875 3.125L4.6875 0.585938C4.6875 0.263672 4.95117 0 5.27344 0L7.22656 0C7.54883 0 7.8125 0.263672 7.8125 0.585938L7.8125 3.125L14.0625 3.125L14.0625 0.585938C14.0625 0.263672 14.3262 0 14.6484 0L16.6016 0C16.9238 0 17.1875 0.263672 17.1875 0.585938L17.1875 3.125L19.5313 3.125C20.8252 3.125 21.875 4.1748 21.875 5.46875L21.875 22.6563ZM19.5313 7.8125L19.5313 22.3633C19.5313 22.5244 19.3994 22.6563 19.2383 22.6563L2.63672 22.6563C2.47559 22.6563 2.34375 22.5244 2.34375 22.3633L2.34375 7.8125L19.5313 7.8125ZM7.22656 14.0625L5.27344 14.0625C4.95117 14.0625 4.6875 13.7988 4.6875 13.4766L4.6875 11.5234C4.6875 11.2012 4.95117 10.9375 5.27344 10.9375L7.22656 10.9375C7.54883 10.9375 7.8125 11.2012 7.8125 11.5234L7.8125 13.4766C7.8125 13.7988 7.54883 14.0625 7.22656 14.0625ZM12.5 11.5234L12.5 13.4766C12.5 13.7988 12.2363 14.0625 11.9141 14.0625L9.96094 14.0625C9.63867 14.0625 9.375 13.7988 9.375 13.4766L9.375 11.5234C9.375 11.2012 9.63867 10.9375 9.96094 10.9375L11.9141 10.9375C12.2363 10.9375 12.5 11.2012 12.5 11.5234ZM17.1875 13.4766L17.1875 11.5234C17.1875 11.2012 16.9238 10.9375 16.6016 10.9375L14.6484 10.9375C14.3262 10.9375 14.0625 11.2012 14.0625 11.5234L14.0625 13.4766C14.0625 13.7988 14.3262 14.0625 14.6484 14.0625L16.6016 14.0625C16.9238 14.0625 17.1875 13.7988 17.1875 13.4766ZM7.8125 18.1641L7.8125 16.211C7.8125 15.8887 7.54883 15.6251 7.22656 15.6251L5.27344 15.6251C4.95117 15.6251 4.6875 15.8887 4.6875 16.211L4.6875 18.1641C4.6875 18.4864 4.95117 18.7501 5.27344 18.7501L7.22656 18.7501C7.54883 18.7501 7.8125 18.4864 7.8125 18.1641ZM12.5 16.211L12.5 18.1641C12.5 18.4864 12.2363 18.7501 11.9141 18.7501L9.96094 18.7501C9.63867 18.7501 9.375 18.4864 9.375 18.1641L9.375 16.211C9.375 15.8887 9.63867 15.6251 9.96094 15.6251L11.9141 15.6251C12.2363 15.6251 12.5 15.8887 12.5 16.211ZM17.1875 16.211L17.1875 18.1641C17.1875 18.4864 16.9238 18.7501 16.6016 18.7501L14.6484 18.7501C14.3262 18.7501 14.0625 18.4864 14.0625 18.1641L14.0625 16.211C14.0625 15.8887 14.3262 15.6251 14.6484 15.6251L16.6016 15.6251C16.9238 15.6251 17.1875 15.8887 17.1875 16.211Z" id="Shape" fill="#FFFFFF" fill-rule="evenodd" stroke="none" />
</svg>