<?xml version="1.0" encoding="utf-8"?>
<svg width="25px" height="23px" viewBox="0 0 25 23" version="1.1" xmlns:xlink="http://www.w3.org/1999/xlink" xmlns="http://www.w3.org/2000/svg">
  <desc>Created with Lunacy</desc>
  <path d="M24.5052 2.61285L22.3872 0.494792C21.7274 -0.164931 20.6554 -0.164931 19.9913 0.494792L18.4549 2.03125C18.2899 2.19618 18.2899 2.46528 18.4549 2.63021L22.3698 6.54514C22.5347 6.71007 22.8038 6.71007 22.9687 6.54514L24.5052 5.00868C25.1649 4.34462 25.1649 3.27257 24.5052 2.61285ZM16.6667 19.4401L16.6667 15.0217C16.6667 14.8828 16.7231 14.7526 16.8186 14.6528L18.5547 12.9167C18.8845 12.5911 19.4444 12.8212 19.4444 13.2856L19.4444 20.1345C19.4444 21.2847 18.5113 22.2179 17.3611 22.2179L2.08333 22.2179C0.93316 22.2179 0 21.2847 0 20.1345L0 4.85677C0 3.7066 0.93316 2.77344 2.08333 2.77344L14.4878 2.77344C14.9523 2.77344 15.1866 3.33333 14.8568 3.66319L13.1207 5.39931C13.0208 5.49479 12.8906 5.55122 12.7517 5.55122L2.77778 5.55122L2.77778 19.4401L16.6667 19.4401ZM21.3889 7.52171L17.474 3.60678C17.309 3.44185 17.0399 3.44185 16.875 3.60678L7.39583 13.0859L6.94878 17.1137C6.88802 17.6519 7.34375 18.1076 7.88194 18.0469L11.9097 17.5998L21.3889 8.12066C21.5538 7.95573 21.5538 7.68664 21.3889 7.52171Z" id="Shape" fill="#AAAAAA" fill-rule="evenodd" stroke="none" />
</svg>