<?xml version="1.0" encoding="utf-8"?>
<svg width="326px" height="247px" viewBox="0 0 326 247" version="1.1" xmlns:xlink="http://www.w3.org/1999/xlink" xmlns="http://www.w3.org/2000/svg">
  <desc>Created with Lunacy</desc>
  <g id="empty-card" transform="translate(1 1)">
    <path d="M2.999 0L321.001 0Q321.148 0 321.295 0.014441Q321.442 0.028882 321.586 0.0576249Q321.731 0.0863679 321.872 0.129136Q322.013 0.171904 322.149 0.228285Q322.285 0.284667 322.415 0.354118Q322.545 0.42357 322.667 0.505423Q322.79 0.587276 322.904 0.680742Q323.017 0.774208 323.122 0.878387Q323.226 0.982566 323.319 1.09645Q323.413 1.21034 323.495 1.33284Q323.576 1.45535 323.646 1.58528Q323.715 1.71522 323.772 1.85133Q323.828 1.98745 323.871 2.12844Q323.914 2.26942 323.942 2.41392Q323.971 2.55843 323.986 2.70505Q324 2.85167 324 2.999L324 242.001Q324 242.148 323.986 242.295Q323.971 242.442 323.942 242.586Q323.914 242.731 323.871 242.872Q323.828 243.013 323.772 243.149Q323.715 243.285 323.646 243.415Q323.576 243.545 323.495 243.667Q323.413 243.79 323.319 243.904Q323.226 244.017 323.122 244.122Q323.017 244.226 322.904 244.319Q322.79 244.413 322.667 244.495Q322.545 244.576 322.415 244.646Q322.285 244.715 322.149 244.772Q322.013 244.828 321.872 244.871Q321.731 244.914 321.586 244.942Q321.442 244.971 321.295 244.986Q321.148 245 321.001 245L2.999 245Q2.85167 245 2.70505 244.986Q2.55842 244.971 2.41392 244.942Q2.26942 244.914 2.12844 244.871Q1.98745 244.828 1.85133 244.772Q1.71522 244.715 1.58528 244.646Q1.45535 244.576 1.33284 244.495Q1.21034 244.413 1.09645 244.319Q0.982566 244.226 0.878387 244.122Q0.774208 244.017 0.680742 243.904Q0.587276 243.79 0.505423 243.667Q0.42357 243.545 0.354118 243.415Q0.284667 243.285 0.228285 243.149Q0.171904 243.013 0.129136 242.872Q0.0863679 242.731 0.0576249 242.586Q0.028882 242.442 0.014441 242.295Q0 242.148 0 242.001L0 2.999Q0 2.85167 0.014441 2.70505Q0.028882 2.55842 0.0576249 2.41392Q0.0863679 2.26942 0.129136 2.12844Q0.171904 1.98745 0.228285 1.85133Q0.284667 1.71522 0.354118 1.58528Q0.42357 1.45535 0.505423 1.33284Q0.587276 1.21034 0.680742 1.09645Q0.774208 0.982566 0.878387 0.878387Q0.982566 0.774208 1.09645 0.680742Q1.21034 0.587276 1.33284 0.505423Q1.45535 0.42357 1.58528 0.354118Q1.71522 0.284667 1.85133 0.228285Q1.98745 0.171904 2.12844 0.129136Q2.26942 0.0863679 2.41392 0.0576249Q2.55842 0.028882 2.70505 0.014441Q2.85167 0 2.999 0Z" id="Rectangle" fill="#FFFFFF" stroke="#F4F4F4" stroke-width="2" />
  </g>
</svg>