<?xml version="1.0" encoding="utf-8"?>
<svg width="153px" height="179px" viewBox="0 0 153 179" version="1.1" xmlns:xlink="http://www.w3.org/1999/xlink" xmlns="http://www.w3.org/2000/svg">
  <desc>Created with Lunacy</desc>
  <g id="grade-card-small" transform="translate(1 1)">
    <path d="M2.999 0L148.001 0Q148.148 0 148.295 0.014441Q148.442 0.028882 148.586 0.0576249Q148.731 0.0863679 148.872 0.129136Q149.013 0.171904 149.149 0.228285Q149.285 0.284667 149.415 0.354118Q149.545 0.42357 149.667 0.505423Q149.79 0.587276 149.904 0.680742Q150.017 0.774208 150.122 0.878387Q150.226 0.982566 150.319 1.09645Q150.413 1.21034 150.495 1.33284Q150.576 1.45535 150.646 1.58528Q150.715 1.71522 150.772 1.85133Q150.828 1.98745 150.871 2.12844Q150.914 2.26942 150.942 2.41392Q150.971 2.55842 150.986 2.70505Q151 2.85167 151 2.999L151 174.001Q151 174.148 150.986 174.295Q150.971 174.442 150.942 174.586Q150.914 174.731 150.871 174.872Q150.828 175.013 150.772 175.149Q150.715 175.285 150.646 175.415Q150.576 175.545 150.495 175.667Q150.413 175.79 150.319 175.904Q150.226 176.017 150.122 176.122Q150.017 176.226 149.904 176.319Q149.79 176.413 149.667 176.495Q149.545 176.576 149.415 176.646Q149.285 176.715 149.149 176.772Q149.013 176.828 148.872 176.871Q148.731 176.914 148.586 176.942Q148.442 176.971 148.295 176.986Q148.148 177 148.001 177L2.999 177Q2.85167 177 2.70505 176.986Q2.55842 176.971 2.41392 176.942Q2.26942 176.914 2.12844 176.871Q1.98745 176.828 1.85133 176.772Q1.71522 176.715 1.58528 176.646Q1.45535 176.576 1.33284 176.495Q1.21034 176.413 1.09645 176.319Q0.982566 176.226 0.878387 176.122Q0.774208 176.017 0.680742 175.904Q0.587276 175.79 0.505423 175.667Q0.42357 175.545 0.354118 175.415Q0.284667 175.285 0.228285 175.149Q0.171904 175.013 0.129136 174.872Q0.0863679 174.731 0.0576249 174.586Q0.028882 174.442 0.014441 174.295Q0 174.148 0 174.001L0 2.999Q0 2.85167 0.014441 2.70505Q0.028882 2.55842 0.0576249 2.41392Q0.0863679 2.26942 0.129136 2.12844Q0.171904 1.98745 0.228285 1.85133Q0.284667 1.71522 0.354118 1.58528Q0.42357 1.45535 0.505423 1.33284Q0.587276 1.21034 0.680742 1.09645Q0.774208 0.982566 0.878387 0.878387Q0.982566 0.774208 1.09645 0.680742Q1.21034 0.587276 1.33284 0.505423Q1.45535 0.42357 1.58528 0.354118Q1.71522 0.284667 1.85133 0.228285Q1.98745 0.171904 2.12844 0.129136Q2.26942 0.0863679 2.41392 0.0576249Q2.55842 0.028882 2.70505 0.014441Q2.85167 0 2.999 0Z" id="Rectangle" fill="#FFFFFF" stroke="#F4F4F4" stroke-width="2" />
    <path d="M0 31.5C0 14.103 14.103 0 31.5 0C48.897 0 63 14.103 63 31.5C63 48.897 48.897 63 31.5 63C14.103 63 0 48.897 0 31.5Z" transform="translate(19 19.99997)" id="Ellipse" fill="#00AEC7" fill-opacity="0.2" stroke="none" />
    <path d="M2.67857 0L22.3214 0C23.75 0 25 1.25 25 2.67857L25 25.8929C25 27.3214 23.75 28.5714 22.3214 28.5714L2.67857 28.5714C1.25 28.5714 0 27.3214 0 25.8929L0 2.67857C0 1.25 1.25 0 2.67857 0ZM20.7143 10.7143C21.0714 10.7143 21.4286 10.3571 21.4286 9.99998L21.4286 4.2857C21.4286 3.92855 21.0714 3.57141 20.7143 3.57141L4.28571 3.57141C3.92857 3.57141 3.57143 3.92855 3.57143 4.2857L3.57143 9.99998C3.57143 10.3571 3.92857 10.7143 4.28571 10.7143L20.7143 10.7143ZM6.42857 17.8571C6.78571 17.8571 7.14285 17.5 7.14285 17.1428L7.14285 15C7.14285 14.6428 6.78571 14.2857 6.42857 14.2857L4.28571 14.2857C3.92857 14.2857 3.57143 14.6428 3.57143 15L3.57143 17.1428C3.57143 17.5 3.92857 17.8571 4.28571 17.8571L6.42857 17.8571ZM13.5714 17.8571C13.9286 17.8571 14.2857 17.5 14.2857 17.1428L14.2857 15C14.2857 14.6428 13.9286 14.2857 13.5714 14.2857L11.4286 14.2857C11.0714 14.2857 10.7143 14.6428 10.7143 15L10.7143 17.1428C10.7143 17.5 11.0714 17.8571 11.4286 17.8571L13.5714 17.8571ZM21.4286 24.2857C21.4286 24.6428 21.0714 25 20.7143 25L18.5714 25C18.2143 25 17.8571 24.6428 17.8571 24.2857L17.8571 15C17.8571 14.6428 18.2143 14.2857 18.5714 14.2857L20.7143 14.2857C21.0714 14.2857 21.4286 14.6428 21.4286 15L21.4286 24.2857ZM7.14285 24.2857C7.14285 24.6429 6.78571 25 6.42857 25L4.28571 25C3.92857 25 3.57143 24.6429 3.57143 24.2857L3.57143 22.1429C3.57143 21.7857 3.92857 21.4286 4.28571 21.4286L6.42857 21.4286C6.78571 21.4286 7.14285 21.7857 7.14285 22.1429L7.14285 24.2857ZM14.2857 24.2857C14.2857 24.6429 13.9286 25 13.5714 25L11.4286 25C11.0714 25 10.7143 24.6429 10.7143 24.2857L10.7143 22.1429C10.7143 21.7857 11.0714 21.4286 11.4286 21.4286L13.5714 21.4286C13.9286 21.4286 14.2857 21.7857 14.2857 22.1429L14.2857 24.2857Z" transform="translate(38 36)" id="Shape" fill="#00AEC7" fill-rule="evenodd" stroke="none" />
  </g>
</svg>