<?xml version="1.0" encoding="utf-8"?>
<svg width="264px" height="84px" viewBox="0 0 264 84" version="1.1" xmlns:xlink="http://www.w3.org/1999/xlink" xmlns="http://www.w3.org/2000/svg">
  <desc>Created with Lunacy</desc>
  <path d="M219.018 5.71322L219.018 43.396L220.063 43.396C230.241 43.396 238.413 47.7418 238.413 47.7418L238.883 47.9902L239.353 47.7418C239.353 47.7418 247.525 43.396 257.703 43.396L258.748 43.396L258.748 4.34062L257.703 4.34062C247.415 4.34062 239.553 8.38128 238.883 8.73434C238.268 8.41007 231.586 4.97502 222.529 4.41702C218.228 1.62511 213.102 0 207.601 0C192.437 0 180.11 12.3268 180.11 27.4909C180.11 34.6801 184.135 40.0607 188.023 45.2605C191.154 49.4316 194.088 53.4106 194.579 57.9321L194.579 68.0038C194.579 73.0962 198.36 77.3125 203.261 78.019L203.261 79.5789C203.261 81.1728 204.561 82.4727 206.154 82.4727L209.048 82.4727C210.642 82.4727 211.942 81.1728 211.942 79.5789L211.942 78.019C216.842 77.3125 220.623 73.0962 220.623 68.0038L220.623 59.232C220.623 55.3575 222.481 51.9357 224.867 48.5146C233.205 49.7335 238.458 52.227 238.458 52.227L238.883 52.4275L239.308 52.227C239.308 52.227 248.509 47.8595 261.885 47.8595L262.93 47.8595L262.93 9.91996L260.839 9.91996L260.839 45.7062C248.085 45.9372 239.467 49.7686 238.883 50.0389C238.299 49.7686 229.682 45.9372 216.927 45.7062L216.927 9.91996L214.836 9.91996L214.836 47.8595L215.881 47.8595C217.901 47.8595 219.825 47.959 221.637 48.1281C219.695 51.1048 218.138 54.2534 217.786 57.7852L209.048 57.7852L209.048 53.5349C209.048 52.738 208.404 52.088 207.601 52.088C206.799 52.088 206.154 52.738 206.154 53.5349L206.154 57.7852L197.501 57.7852C196.981 52.3932 193.613 47.8943 190.34 43.5197C186.74 38.7043 183.004 33.725 183.004 27.4909C183.004 13.932 194.042 2.89378 207.601 2.89378C211.722 2.89378 215.608 3.91227 219.018 5.71322ZM237.838 10.6522C236.429 9.97226 229.731 6.93414 221.109 6.67261L221.109 41.2645C229.355 41.4999 235.612 44.0498 237.838 45.0741L237.838 10.6522ZM256.657 41.2645L256.657 6.67261C248.036 6.93414 241.338 9.97226 239.929 10.6522L239.929 45.0741C242.154 44.0498 248.411 41.4999 256.657 41.2645ZM196.478 10.5578C199.762 8.39874 203.538 7.26271 207.404 7.23445C208.692 7.22315 209.992 7.33053 211.286 7.57356C212.072 7.71486 212.592 8.46657 212.445 9.25218C212.304 10.0435 211.552 10.5634 210.766 10.4165C206.324 9.6026 201.819 10.5069 198.072 12.9711C197.829 13.135 197.552 13.2085 197.275 13.2085C196.806 13.2085 196.343 12.9824 196.071 12.5586C195.631 11.8916 195.811 10.993 196.478 10.5578ZM170.016 10.8686C169.457 10.8799 168.92 11.219 168.694 11.7729C168.4 12.5133 168.756 13.3611 169.496 13.655L174.866 15.8253C175.041 15.8988 175.227 15.9327 175.408 15.9327C175.979 15.9327 176.522 15.588 176.748 15.0284C177.047 14.2824 176.685 13.4402 175.945 13.1407L170.581 10.9704C170.395 10.8969 170.208 10.863 170.016 10.8686ZM105.917 74.9321C104.181 74.9321 102.747 74.4586 101.616 73.5115C100.485 72.5644 99.919 71.17 99.919 69.3284L99.919 24.0255C99.919 22.1839 100.485 20.7896 101.616 19.8425C102.747 18.8954 104.181 18.4218 105.917 18.4218C107.601 18.4218 109.009 18.8954 110.14 19.8425C111.271 20.7896 111.837 22.1839 111.837 24.0255L111.837 69.3284C111.837 71.17 111.271 72.5644 110.14 73.5115C109.009 74.4586 107.601 74.9321 105.917 74.9321ZM144.985 34.7593C148.353 34.7593 151.325 35.5748 153.904 37.206Q157.771 39.6526 159.941 44.1908Q162.112 48.729 162.112 54.7273Q162.112 60.7256 159.941 65.3427C158.495 68.4208 156.469 70.8149 153.864 72.5249Q149.957 75.09 144.985 75.09C142.302 75.09 139.881 74.5243 137.724 73.3931Q134.488 71.6962 132.752 68.697L132.752 69.3284C132.752 71.0122 132.226 72.3671 131.173 73.3931C130.121 74.4191 128.7 74.9321 126.911 74.9321C125.122 74.9321 123.689 74.4191 122.61 73.3931C121.531 72.3671 120.992 71.0122 120.992 69.3284L120.992 23.8676Q120.992 21.421 122.689 19.9214C123.82 18.9217 125.307 18.4218 127.148 18.4218C128.884 18.4218 130.279 18.8954 131.331 19.8425Q132.91 21.2631 132.91 23.6309L132.91 40.9154Q134.646 37.9952 137.842 36.3773C139.973 35.2986 142.354 34.7593 144.985 34.7593ZM35.753 45.6509C38.9626 46.598 41.4488 48.2423 43.2114 50.5837C44.9741 52.9252 45.8554 55.8059 45.8554 59.226C45.8554 63.9089 44.1322 67.6184 40.6858 70.3544Q35.5162 74.4585 26.4399 74.4585L5.76152 74.4585C3.91994 74.4585 2.49929 73.9587 1.49958 72.959C0.499858 71.9592 0 70.5386 0 68.697L0 24.5779Q0 21.8156 1.49958 20.316Q2.99915 18.8164 5.76152 18.8164L25.6506 18.8164Q34.3324 18.8164 39.423 22.6837Q44.5137 26.5511 44.5137 33.2597Q44.5137 37.6006 42.1854 40.8759C40.6332 43.0595 38.4891 44.6512 35.753 45.6509ZM164.195 26.044C163.392 26.044 162.748 26.694 162.748 27.4909C162.748 28.2878 163.392 28.9378 164.195 28.9378L172.876 28.9378C173.679 28.9378 174.323 28.2878 174.323 27.4909C174.323 26.694 173.679 26.044 172.876 26.044L164.195 26.044ZM23.5985 41.4679L11.9966 41.4679L11.9966 28.2085L23.5985 28.2085C26.7555 28.2085 29.0838 28.7478 30.5834 29.8265Q32.8328 31.4444 32.8328 34.9171Q32.8328 38.232 30.5834 39.8499C29.0838 40.9286 26.7555 41.4679 23.5985 41.4679ZM201.814 31.8316C201.446 31.8316 201.073 31.9729 200.791 32.2555C200.226 32.8207 200.226 33.7363 200.791 34.3015L203.685 37.1952C203.967 37.4778 204.335 37.6191 204.708 37.6191C205.081 37.6191 205.448 37.4778 205.731 37.1952C206.296 36.6301 206.296 35.7144 205.731 35.1493L202.837 32.2555C202.554 31.9729 202.181 31.8316 201.814 31.8316ZM209.461 35.1549C209.749 34.8723 210.116 34.731 210.49 34.731C210.857 34.731 211.224 34.8723 211.512 35.1549C212.078 35.7257 212.078 36.6357 211.512 37.2065L209.048 39.6651L209.048 47.7473C209.048 48.5443 208.404 49.1942 207.601 49.1942C206.799 49.1942 206.154 48.5443 206.154 47.7473L206.154 39.066C206.154 38.6817 206.307 38.3143 206.578 38.043L209.461 35.1549ZM89.1458 36.4167C88.0671 35.417 86.607 34.9171 84.7654 34.9171C82.9238 34.9171 81.4769 35.417 80.4246 36.4167C79.3722 37.4164 78.8461 38.7844 78.8461 40.5208L78.8461 57.174Q78.8461 61.0413 76.6756 63.409C75.2287 64.9876 73.3476 65.7768 71.0325 65.7768C69.0331 65.7768 67.5466 65.2243 66.5732 64.1194C65.5998 63.0144 65.1131 61.3044 65.1131 58.9892L65.1131 40.5208C65.1131 38.7844 64.5869 37.4164 63.5346 36.4167C62.4823 35.417 61.0353 34.9171 59.1937 34.9171C57.3521 34.9171 55.892 35.417 54.8134 36.4167C53.7348 37.4164 53.1954 38.7844 53.1954 40.5208L53.1954 58.7525Q53.1954 66.9607 56.7865 71.0253C59.1806 73.7351 62.8243 75.0899 67.7176 75.0899C70.1906 75.0899 72.4137 74.5638 74.3868 73.5114C76.3599 72.4591 77.9516 70.9332 79.1618 68.9338L79.1618 69.723C79.1618 71.3015 79.6616 72.5643 80.6613 73.5114C81.661 74.4585 83.0028 74.9321 84.6865 74.9321C86.4755 74.9321 87.9356 74.4322 89.0668 73.4325C90.1981 72.4328 90.7637 71.1174 90.7637 69.4863L90.7637 40.5208C90.7637 38.7844 90.2244 37.4164 89.1458 36.4167ZM174.866 39.1564C175.046 39.0829 175.239 39.049 175.425 39.0547C175.99 39.066 176.522 39.3994 176.748 39.9533C177.047 40.6994 176.685 41.5415 175.945 41.8411L170.581 44.0114C170.401 44.0792 170.22 44.1131 170.039 44.1131C169.468 44.1131 168.925 43.774 168.694 43.2088C168.4 42.4684 168.756 41.6207 169.496 41.3268L174.866 39.1564ZM141.512 66.0135C144.301 66.0135 146.458 65.027 147.984 63.0539C149.51 61.0807 150.273 58.3052 150.273 54.7273C150.273 51.202 149.51 48.5054 147.984 46.6375C146.458 44.7696 144.301 43.8356 141.512 43.8356C138.724 43.8356 136.567 44.7959 135.041 46.7164C133.515 48.6369 132.752 51.3598 132.752 54.8851C132.752 58.4631 133.515 61.2123 135.041 63.1328C136.567 65.0533 138.724 66.0135 141.512 66.0135ZM25.0192 65.0665C28.2814 65.0665 30.6492 64.514 32.1224 63.4091C33.5957 62.3041 34.3323 60.5151 34.3323 58.0422C34.3323 55.5692 33.5957 53.7539 32.1224 52.5963Q29.9125 50.86 25.0192 50.86L11.9966 50.86L11.9966 65.0665L25.0192 65.0665ZM217.73 60.7694L217.73 62.3858L197.473 64.9179L197.473 60.7694L217.73 60.7694ZM217.73 68.0038L217.73 65.3022L197.473 67.8342L197.473 68.0038C197.473 71.994 200.717 75.2383 204.708 75.2383L210.495 75.2383C213.338 75.2383 215.78 73.5766 216.961 71.1858L203.379 72.8814C203.317 72.8927 203.255 72.8927 203.199 72.8927C202.481 72.8927 201.859 72.3614 201.769 71.6267C201.667 70.8354 202.226 70.112 203.018 70.0159L217.713 68.179C217.713 68.1168 217.73 68.0603 217.73 68.0038ZM209.048 78.1321L209.048 79.5789L206.154 79.5789L206.154 78.1321L209.048 78.1321Z" transform="translate(0.5 0.5)" id="Bulb" fill="#FFFFFF" fill-rule="evenodd" stroke="#FFFFFF" stroke-width="1" />
</svg>