<?xml version="1.0" encoding="utf-8"?>
<svg width="107px" height="89px" viewBox="0 0 107 89" version="1.1" xmlns:xlink="http://www.w3.org/1999/xlink" xmlns="http://www.w3.org/2000/svg">
  <desc>Created with Lunacy</desc>
  <path d="M59.3839 45.7973L59.3839 6.02937C55.7858 4.12876 51.6845 3.05391 47.3356 3.05391C33.0264 3.05391 21.3774 14.7029 21.3774 29.0121C21.3774 35.5912 25.32 40.846 29.1195 45.9279C32.5731 50.5446 36.128 55.2925 36.6768 60.9828L45.8087 60.9828L45.8087 56.4973C45.8087 55.6563 46.4886 54.9704 47.3356 54.9704C48.1826 54.9704 48.8626 55.6563 48.8626 56.4973L48.8626 60.9828L58.0839 60.9828C58.4551 57.2556 60.0981 53.9328 62.148 50.7913C60.2358 50.6129 58.205 50.5078 56.0738 50.5078L54.9704 50.5078L54.9704 10.4689L57.1771 10.4689L57.1771 48.2354C70.6377 48.4792 79.732 52.5226 80.3484 52.8078C80.9647 52.5226 90.059 48.4792 103.52 48.2354L103.52 10.4689L105.726 10.4689L105.726 50.5078L104.623 50.5078C90.5073 50.5078 80.7966 55.1171 80.7966 55.1171L80.3484 55.3287L79.9001 55.1171C79.9001 55.1171 74.356 52.4855 65.5566 51.1992C63.0381 54.8096 61.0782 58.4207 61.0782 62.5097L61.0782 71.7669C61.0782 77.141 57.0878 81.5907 51.9165 82.3362L51.9165 83.9825C51.9165 85.6645 50.5446 87.0364 48.8626 87.0364L45.8087 87.0364C44.1266 87.0364 42.7547 85.6645 42.7547 83.9825L42.7547 82.3362C37.5834 81.5907 33.593 77.141 33.593 71.7669L33.593 61.1378C33.0741 56.3661 29.9784 52.167 26.674 47.765C22.5703 42.2775 18.3235 36.5992 18.3235 29.0121C18.3235 13.0089 31.3324 0 47.3356 0C53.1403 0 58.55 1.71504 63.0893 4.66144C72.6471 5.25031 79.6991 8.87545 80.3484 9.21767C81.0552 8.84507 89.3522 4.58081 100.209 4.58081L101.313 4.58081L101.313 45.7973L100.209 45.7973C89.4686 45.7973 80.844 50.3836 80.844 50.3836L80.3484 50.6458L79.8527 50.3836C79.8527 50.3836 71.2281 45.7973 60.4873 45.7973L59.3839 45.7973ZM79.2449 11.2417C77.758 10.5241 70.6894 7.31788 61.5907 7.04187L61.5907 43.5479C70.2928 43.7963 76.8959 46.4874 79.2449 47.5684L79.2449 11.2417ZM99.1059 7.04187L99.1059 43.5479C90.4038 43.7963 83.8007 46.4874 81.4517 47.5684L81.4517 11.2417C82.9387 10.5241 90.0072 7.31788 99.1059 7.04187ZM35.5971 11.142C39.0626 8.86348 43.047 7.66458 47.1268 7.63476C48.4868 7.62283 49.8586 7.73616 51.2245 7.99264C52.0536 8.14176 52.6024 8.93506 52.4473 9.76415C52.2982 10.5992 51.5049 11.148 50.6758 10.9929C45.9876 10.134 41.2337 11.0883 37.2792 13.6889C37.0227 13.8619 36.7304 13.9394 36.4381 13.9394C35.9431 13.9394 35.454 13.7008 35.1677 13.2535C34.7024 12.5497 34.8933 11.6013 35.5971 11.142ZM6.27481 12.4243C6.5134 11.8398 7.08004 11.4819 7.67054 11.47C7.87334 11.464 8.07017 11.4998 8.26701 11.5774L13.9275 13.8678C14.7088 14.1839 15.0906 15.0727 14.7745 15.86C14.5359 16.4505 13.9633 16.8143 13.3608 16.8143C13.17 16.8143 12.9731 16.7786 12.7882 16.701L7.12179 14.4106C6.34042 14.1004 5.96465 13.2057 6.27481 12.4243ZM0 29.0121C0 28.171 0.679973 27.4851 1.52696 27.4851L10.6887 27.4851C11.5357 27.4851 12.2156 28.171 12.2156 29.0121C12.2156 29.8531 11.5357 30.539 10.6887 30.539L1.52696 30.539C0.679973 30.539 0 29.8531 0 29.0121ZM40.1482 34.0404C40.4464 33.7421 40.8401 33.593 41.2278 33.593C41.6155 33.593 42.0091 33.7421 42.3074 34.0404L45.3613 37.0943C45.9578 37.6907 45.9578 38.657 45.3613 39.2535C45.063 39.5517 44.6753 39.7008 44.2817 39.7008C43.888 39.7008 43.5003 39.5517 43.2021 39.2535L40.1482 36.1996C39.5517 35.6031 39.5517 34.6368 40.1482 34.0404ZM49.2979 37.1002C49.6021 36.8019 49.9898 36.6528 50.3835 36.6528C50.7712 36.6528 51.1589 36.8019 51.4631 37.1002C52.0596 37.7026 52.0596 38.6629 51.4631 39.2654L48.8625 41.86L48.8625 50.3895C48.8625 51.2305 48.1825 51.9164 47.3355 51.9164C46.4886 51.9164 45.8086 51.2305 45.8086 50.3895L45.8086 41.2277C45.8086 40.8221 45.9696 40.4344 46.2559 40.1481L49.2979 37.1002ZM12.7882 41.3232C12.9791 41.2457 13.1819 41.2099 13.3787 41.2158C13.9752 41.2278 14.5359 41.5797 14.7745 42.1642C15.0906 42.9516 14.7088 43.8403 13.9275 44.1564L8.26701 46.4469C8.07614 46.5184 7.88527 46.5542 7.6944 46.5542C7.09197 46.5542 6.51936 46.1964 6.27481 45.5999C5.96465 44.8185 6.34042 43.9238 7.12179 43.6136L12.7882 41.3232ZM58.0243 65.838L58.0243 64.1321L36.6469 64.1321L36.6469 68.5102L58.0243 65.838ZM58.0243 71.7668L58.0243 68.9157L36.6469 71.5879L36.6469 71.7668C36.6469 75.9779 40.0706 79.4016 44.2817 79.4016L50.3895 79.4016C53.3897 79.4016 55.9665 77.648 57.2131 75.1249L42.88 76.9143C42.8144 76.9263 42.7488 76.9263 42.6891 76.9263C41.9316 76.9263 41.2755 76.3656 41.1801 75.5902C41.0727 74.7551 41.6632 73.9916 42.4982 73.8902L58.0064 71.9517C58.0064 71.8861 58.0243 71.8265 58.0243 71.7668ZM48.8625 83.9825L48.8625 82.4556L45.8086 82.4556L45.8086 83.9825L48.8625 83.9825Z" transform="translate(0.5 0.5)" id="Light-Bulb" fill="#231F20" fill-rule="evenodd" stroke="#231F20" stroke-width="1" />
</svg>